<svg xmlns="http://www.w3.org/2000/svg" xmlns:xlink="http://www.w3.org/1999/xlink" contentStyleType="text/css" height="200px" preserveAspectRatio="none" style="width:1476px;height:200px;;" version="1.1" viewBox="0 0 1476 200" width="1476px" zoomAndPan="magnify"><defs></defs><g><g id="elem_Usuario"><ellipse cx="739.1021" cy="14" fill="#F1F1F1" rx="8" ry="8" style="stroke:#181818;stroke-width:0.5;"></ellipse><path d="M739.1021,22 L739.1021,49 M726.1021,30 L752.1021,30 M739.1021,49 L726.1021,64 M739.1021,49 L752.1021,64 " fill="none" style="stroke:#181818;stroke-width:0.5;"></path><text fill="#000000" font-family="sans-serif" font-size="14" lengthAdjust="spacing" textLength="53.2041" x="712.5" y="78.4951">Usuario</text></g><g id="elem_CadastrarFuncionario"><ellipse cx="101.8011" cy="168.0602" fill="#F1F1F1" rx="95.8011" ry="21.5602" style="stroke:#181818;stroke-width:0.5;"></ellipse><text fill="#000000" font-family="sans-serif" font-size="14" lengthAdjust="spacing" textLength="154.7588" x="24.4217" y="170.9069">Cadastrar Funcionario</text></g><g id="elem_BuscarFuncionarioPorId"><ellipse cx="339.824" cy="167.7648" fill="#F1F1F1" rx="106.824" ry="23.7648" style="stroke:#181818;stroke-width:0.5;"></ellipse><text fill="#000000" font-family="sans-serif" font-size="14" lengthAdjust="spacing" textLength="178.9922" x="250.3279" y="170.6115">Buscar Funcionario por Id</text></g><g id="elem_BuscarTodosFuncionarios"><ellipse cx="602.202" cy="167.9404" fill="#F1F1F1" rx="120.202" ry="26.4404" style="stroke:#181818;stroke-width:0.5;"></ellipse><text fill="#000000" font-family="sans-serif" font-size="14" lengthAdjust="spacing" textLength="207.7852" x="498.3094" y="170.7871">Buscar Todos os Funcionarios</text></g><g id="elem_BuscarFuncionarioPorNome"><ellipse cx="876.9585" cy="167.8917" fill="#F1F1F1" rx="119.9585" ry="26.3917" style="stroke:#181818;stroke-width:0.5;"></ellipse><text fill="#000000" font-family="sans-serif" font-size="14" lengthAdjust="spacing" textLength="207.2656" x="773.3256" y="170.7384">Buscar Funcionario por Nome</text></g><g id="elem_DeletarFuncionarioPorId"><ellipse cx="1141.1282" cy="168.1256" fill="#F1F1F1" rx="108.6282" ry="24.1256" style="stroke:#181818;stroke-width:0.5;"></ellipse><text fill="#000000" font-family="sans-serif" font-size="14" lengthAdjust="spacing" textLength="182.9092" x="1049.6736" y="170.9723">Deletar Funcionario por Id</text></g><g id="elem_AtualizarFuncionario"><ellipse cx="1377.7975" cy="167.9595" fill="#F1F1F1" rx="92.7975" ry="20.9595" style="stroke:#181818;stroke-width:0.5;"></ellipse><text fill="#000000" font-family="sans-serif" font-size="14" lengthAdjust="spacing" textLength="148.0459" x="1303.7746" y="170.8062">Atualizar Funcionario</text></g><g id="link_Usuario_CadastrarFuncionario"><path d="M712.48,49.03 C635.45,62.28 405.09,102.47 215,141.5 C199.24,144.74 188.1442,147.1251 172.2942,150.6851 " fill="none" id="Usuario-to-CadastrarFuncionario" style="stroke:#181818;stroke-width:1.0;"></path><polygon fill="#181818" points="166.44,152,176.0978,153.9305,171.3185,150.9043,174.3446,146.1249,166.44,152" style="stroke:#181818;stroke-width:1.0;"></polygon></g><g id="link_Usuario_BuscarFuncionarioPorId"><path d="M712.2,52.73 C649.04,72.12 495.2557,119.3288 406.9357,146.4488 " fill="none" id="Usuario-to-BuscarFuncionarioPorId" style="stroke:#181818;stroke-width:1.0;"></path><polygon fill="#181818" points="401.2,148.21,410.9777,149.3919,405.9797,146.7423,408.6294,141.7444,401.2,148.21" style="stroke:#181818;stroke-width:1.0;"></polygon></g><g id="link_Usuario_BuscarTodosFuncionarios"><path d="M712.26,68.41 C688.59,89.58 658.6221,116.37 634.5621,137.89 " fill="none" id="Usuario-to-BuscarTodosFuncionarios" style="stroke:#181818;stroke-width:1.0;"></path><polygon fill="#181818" points="630.09,141.89,639.4649,138.8714,633.8168,138.5567,634.1315,132.9086,630.09,141.89" style="stroke:#181818;stroke-width:1.0;"></polygon></g><g id="link_Usuario_BuscarFuncionarioPorNome"><path d="M765.61,68.12 C789.57,89.39 820.1926,116.5771 844.5626,138.2071 " fill="none" id="Usuario-to-BuscarFuncionarioPorNome" style="stroke:#181818;stroke-width:1.0;"></path><polygon fill="#181818" points="849.05,142.19,844.9741,133.2241,845.3105,138.8709,839.6637,139.2073,849.05,142.19" style="stroke:#181818;stroke-width:1.0;"></polygon></g><g id="link_Usuario_DeletarFuncionarioPorId"><path d="M765.69,52.63 C829.08,71.95 984.3106,119.251 1073.4706,146.421 " fill="none" id="Usuario-to-DeletarFuncionarioPorId" style="stroke:#181818;stroke-width:1.0;"></path><polygon fill="#181818" points="1079.21,148.17,1071.7669,141.7202,1074.4271,146.7125,1069.4349,149.3728,1079.21,148.17" style="stroke:#181818;stroke-width:1.0;"></polygon></g><g id="link_Usuario_AtualizarFuncionario"><path d="M765.73,48.98 C843.37,62.09 1075.56,101.94 1267,141.5 C1282.98,144.8 1294.3321,147.2778 1310.3221,150.9478 " fill="none" id="Usuario-to-AtualizarFuncionario" style="stroke:#181818;stroke-width:1.0;"></path><polygon fill="#181818" points="1316.17,152.29,1308.2929,146.3781,1311.2967,151.1715,1306.5033,154.1753,1316.17,152.29" style="stroke:#181818;stroke-width:1.0;"></polygon></g></g></svg>