<svg xmlns="http://www.w3.org/2000/svg" xmlns:xlink="http://www.w3.org/1999/xlink" contentStyleType="text/css" height="217px" preserveAspectRatio="none" style="width:1426px;height:217px;;" version="1.1" viewBox="0 0 1426 217" width="1426px" zoomAndPan="magnify"><defs></defs><g><g id="elem_Usuario"><ellipse cx="652.1021" cy="14" fill="#F1F1F1" rx="8" ry="8" style="stroke:#181818;stroke-width:0.5;"></ellipse><path d="M652.1021,22 L652.1021,49 M639.1021,30 L665.1021,30 M652.1021,49 L639.1021,64 M652.1021,49 L665.1021,64 " fill="none" style="stroke:#181818;stroke-width:0.5;"></path><text fill="#000000" font-family="sans-serif" font-size="14" lengthAdjust="spacing" textLength="53.2041" x="625.5" y="78.4951">Usuario</text></g><g id="elem_AdicionarReceita"><ellipse cx="87.7704" cy="176.2541" fill="#F1F1F1" rx="81.7704" ry="18.7541" style="stroke:#181818;stroke-width:0.5;"></ellipse><text fill="#000000" font-family="sans-serif" font-size="14" lengthAdjust="spacing" textLength="122.7734" x="25.3647" y="179.4378">Adicionar Receita</text></g><g id="elem_BuscarReceitaPorId"><ellipse cx="299.1637" cy="176.6327" fill="#F1F1F1" rx="93.6637" ry="21.1327" style="stroke:#181818;stroke-width:0.5;"></ellipse><text fill="#000000" font-family="sans-serif" font-size="14" lengthAdjust="spacing" textLength="149.9873" x="224.17" y="179.4794">Buscar Receita por Id</text></g><g id="elem_BuscarTodasReceitas"><ellipse cx="534.2392" cy="176.7478" fill="#F1F1F1" rx="106.7392" ry="23.7478" style="stroke:#181818;stroke-width:0.5;"></ellipse><text fill="#000000" font-family="sans-serif" font-size="14" lengthAdjust="spacing" textLength="178.8076" x="444.8353" y="179.5945">Buscar Todas as Receitas</text></g><g id="elem_DeletarReceitaPorId"><ellipse cx="770.9174" cy="176.4835" fill="#F1F1F1" rx="95.4174" ry="21.4835" style="stroke:#181818;stroke-width:0.5;"></ellipse><text fill="#000000" font-family="sans-serif" font-size="14" lengthAdjust="spacing" textLength="153.9043" x="693.9653" y="179.3302">Deletar Receita por Id</text></g><g id="elem_AtualizarReceita"><ellipse cx="982.2132" cy="176.4426" fill="#F1F1F1" rx="80.2132" ry="18.4426" style="stroke:#181818;stroke-width:0.5;"></ellipse><text fill="#000000" font-family="sans-serif" font-size="14" lengthAdjust="spacing" textLength="119.041" x="921.1067" y="179.7994">Atualizar Receita</text></g><g id="elem_BuscarReceitaPorMetodoPagamento"><ellipse cx="1258.9296" cy="176.2859" fill="#F1F1F1" rx="161.9296" ry="34.7859" style="stroke:#181818;stroke-width:0.5;"></ellipse><text fill="#000000" font-family="sans-serif" font-size="14" lengthAdjust="spacing" textLength="295.2373" x="1111.3109" y="179.1326">Buscar Receita por Metodo de Pagamento</text></g><g id="link_Usuario_AdicionarReceita"><path d="M625.31,48.91 C553.79,60.96 352.12,96.62 188,141.5 C168.72,146.77 153.3904,151.7301 135.6404,157.9701 " fill="none" id="Usuario-to-AdicionarReceita" style="stroke:#181818;stroke-width:1.0;"></path><polygon fill="#181818" points="129.98,159.96,139.7972,160.7487,134.697,158.3017,137.144,153.2015,129.98,159.96" style="stroke:#181818;stroke-width:1.0;"></polygon></g><g id="link_Usuario_BuscarReceitaPorId"><path d="M625.47,54.35 C565.82,76.48 426.1353,128.3229 351.1253,156.1529 " fill="none" id="Usuario-to-BuscarReceitaPorId" style="stroke:#181818;stroke-width:1.0;"></path><polygon fill="#181818" points="345.5,158.24,355.3294,158.8596,350.1878,156.5008,352.5466,151.3592,345.5,158.24" style="stroke:#181818;stroke-width:1.0;"></polygon></g><g id="link_Usuario_BuscarTodasReceitas"><path d="M625.22,74.23 C603.6,98.23 577.6656,127.0219 558.0656,148.7819 " fill="none" id="Usuario-to-BuscarTodasReceitas" style="stroke:#181818;stroke-width:1.0;"></path><polygon fill="#181818" points="554.05,153.24,563.0455,149.2299,557.3963,149.5249,557.1013,143.8757,554.05,153.24" style="stroke:#181818;stroke-width:1.0;"></polygon></g><g id="link_Usuario_DeletarReceitaPorId"><path d="M678.71,73.9 C701.18,98.64 728.7052,128.9393 748.4852,150.7093 " fill="none" id="Usuario-to-DeletarReceitaPorId" style="stroke:#181818;stroke-width:1.0;"></path><polygon fill="#181818" points="752.52,155.15,749.4283,145.799,749.1577,151.4494,743.5073,151.1788,752.52,155.15" style="stroke:#181818;stroke-width:1.0;"></polygon></g><g id="link_Usuario_AtualizarReceita"><path d="M678.73,55.11 C737.03,78.26 870.2735,131.1459 937.9735,158.0259 " fill="none" id="Usuario-to-AtualizarReceita" style="stroke:#181818;stroke-width:1.0;"></path><polygon fill="#181818" points="943.55,160.24,936.6613,153.2011,938.9029,158.3949,933.7091,160.6365,943.55,160.24" style="stroke:#181818;stroke-width:1.0;"></polygon></g><g id="link_Usuario_BuscarReceitaPorMetodoPagamento"><path d="M678.87,50.3 C759.34,67.67 995.955,118.7345 1140.695,149.9645 " fill="none" id="Usuario-to-BuscarReceitaPorMetodoPagamento" style="stroke:#181818;stroke-width:1.0;"></path><polygon fill="#181818" points="1146.56,151.23,1138.6061,145.4218,1141.6725,150.1754,1136.9188,153.2418,1146.56,151.23" style="stroke:#181818;stroke-width:1.0;"></polygon></g></g></svg>