<svg xmlns="http://www.w3.org/2000/svg" xmlns:xlink="http://www.w3.org/1999/xlink" contentStyleType="text/css" height="215px" preserveAspectRatio="none" style="width:1430px;height:215px;;" version="1.1" viewBox="0 0 1430 215" width="1430px" zoomAndPan="magnify"><defs></defs><g><g id="elem_Usuario"><ellipse cx="660.1021" cy="14" fill="#F1F1F1" rx="8" ry="8" style="stroke:#181818;stroke-width:0.5;"></ellipse><path d="M660.1021,22 L660.1021,49 M647.1021,30 L673.1021,30 M660.1021,49 L647.1021,64 M660.1021,49 L673.1021,64 " fill="none" style="stroke:#181818;stroke-width:0.5;"></path><text fill="#000000" font-family="sans-serif" font-size="14" lengthAdjust="spacing" textLength="53.2041" x="633.5" y="78.4951">Usuario</text></g><g id="elem_CadastrarProduto"><ellipse cx="89.8758" cy="175.6752" fill="#F1F1F1" rx="83.8758" ry="19.1752" style="stroke:#181818;stroke-width:0.5;"></ellipse><text fill="#000000" font-family="sans-serif" font-size="14" lengthAdjust="spacing" textLength="127.7227" x="25.7137" y="178.6249">Cadastrar Produto</text></g><g id="elem_BuscarProdutoPorId"><ellipse cx="304.0441" cy="175.3088" fill="#F1F1F1" rx="94.5441" ry="21.3088" style="stroke:#181818;stroke-width:0.5;"></ellipse><text fill="#000000" font-family="sans-serif" font-size="14" lengthAdjust="spacing" textLength="151.9561" x="228.0661" y="178.1555">Buscar Produto por Id</text></g><g id="elem_BuscarTodosProdutos"><ellipse cx="541.1326" cy="175.4265" fill="#F1F1F1" rx="107.6326" ry="23.9265" style="stroke:#181818;stroke-width:0.5;"></ellipse><text fill="#000000" font-family="sans-serif" font-size="14" lengthAdjust="spacing" textLength="180.749" x="450.758" y="178.2732">Buscar Todos os Produtos</text></g><g id="elem_DeletarProdutoPorId"><ellipse cx="779.802" cy="175.6604" fill="#F1F1F1" rx="96.302" ry="21.6604" style="stroke:#181818;stroke-width:0.5;"></ellipse><text fill="#000000" font-family="sans-serif" font-size="14" lengthAdjust="spacing" textLength="155.873" x="701.8655" y="178.5071">Deletar Produto por Id</text></g><g id="elem_AtualizarProduto"><ellipse cx="993.0312" cy="175.6062" fill="#F1F1F1" rx="81.0312" ry="18.6062" style="stroke:#181818;stroke-width:0.5;"></ellipse><text fill="#000000" font-family="sans-serif" font-size="14" lengthAdjust="spacing" textLength="121.0098" x="931.2422" y="178.8721">Atualizar Produto</text></g><g id="elem_BuscarProdutoPorNomeFornecedor"><ellipse cx="1266.9741" cy="175.3948" fill="#F1F1F1" rx="157.4741" ry="33.8948" style="stroke:#181818;stroke-width:0.5;"></ellipse><text fill="#000000" font-family="sans-serif" font-size="14" lengthAdjust="spacing" textLength="286.0088" x="1123.9697" y="178.2415">Buscar Produto por Nome de Fornecedor</text></g><g id="link_Usuario_CadastrarProduto"><path d="M633.38,48.97 C561.56,61.26 358.05,97.57 192,141.5 C172.66,146.62 157.2624,151.3636 139.3124,157.3436 " fill="none" id="Usuario-to-CadastrarProduto" style="stroke:#181818;stroke-width:1.0;"></path><polygon fill="#181818" points="133.62,159.24,143.4229,160.1903,138.3637,157.6597,140.8943,152.6004,133.62,159.24" style="stroke:#181818;stroke-width:1.0;"></polygon></g><g id="link_Usuario_BuscarProdutoPorId"><path d="M633.24,54.27 C573.41,76.12 433.746,127.1219 357.756,154.8719 " fill="none" id="Usuario-to-BuscarProdutoPorId" style="stroke:#181818;stroke-width:1.0;"></path><polygon fill="#181818" points="352.12,156.93,361.946,157.6001,356.8166,155.2149,359.2019,150.0855,352.12,156.93" style="stroke:#181818;stroke-width:1.0;"></polygon></g><g id="link_Usuario_BuscarTodosProdutos"><path d="M633.29,73.67 C611.64,97.33 585.6108,125.7639 565.7508,147.4639 " fill="none" id="Usuario-to-BuscarTodosProdutos" style="stroke:#181818;stroke-width:1.0;"></path><polygon fill="#181818" points="561.7,151.89,570.727,147.9513,565.0757,148.2015,564.8255,142.5502,561.7,151.89" style="stroke:#181818;stroke-width:1.0;"></polygon></g><g id="link_Usuario_DeletarProdutoPorId"><path d="M686.63,73.35 C709.28,97.89 737.1603,128.0912 757.2003,149.8012 " fill="none" id="Usuario-to-DeletarProdutoPorId" style="stroke:#181818;stroke-width:1.0;"></path><polygon fill="#181818" points="761.27,154.21,758.1047,144.8836,757.8786,150.536,752.2263,150.3099,761.27,154.21" style="stroke:#181818;stroke-width:1.0;"></polygon></g><g id="link_Usuario_AtualizarProduto"><path d="M686.69,54.92 C745.26,77.78 879.7008,130.2681 948.2508,157.0281 " fill="none" id="Usuario-to-AtualizarProduto" style="stroke:#181818;stroke-width:1.0;"></path><polygon fill="#181818" points="953.84,159.21,946.9107,152.211,949.1823,157.3918,944.0016,159.6633,953.84,159.21" style="stroke:#181818;stroke-width:1.0;"></polygon></g><g id="link_Usuario_BuscarProdutoPorNomeFornecedor"><path d="M686.87,50.25 C767.86,67.6 1007.063,118.8338 1151.473,149.7538 " fill="none" id="Usuario-to-BuscarProdutoPorNomeFornecedor" style="stroke:#181818;stroke-width:1.0;"></path><polygon fill="#181818" points="1157.34,151.01,1149.3769,145.2143,1152.4508,149.9632,1147.702,153.037,1157.34,151.01" style="stroke:#181818;stroke-width:1.0;"></polygon></g></g></svg>