<svg xmlns="http://www.w3.org/2000/svg" xmlns:xlink="http://www.w3.org/1999/xlink" contentStyleType="text/css" height="235px" preserveAspectRatio="none" style="width:1321px;height:235px;;" version="1.1" viewBox="0 0 1321 235" width="1321px" zoomAndPan="magnify"><defs></defs><g><g id="elem_Usuario"><ellipse cx="553.6021" cy="14" fill="#F1F1F1" rx="8" ry="8" style="stroke:#181818;stroke-width:0.5;"></ellipse><path d="M553.6021,22 L553.6021,49 M540.6021,30 L566.6021,30 M553.6021,49 L540.6021,64 M553.6021,49 L566.6021,64 " fill="none" style="stroke:#181818;stroke-width:0.5;"></path><text fill="#000000" font-family="sans-serif" font-size="14" lengthAdjust="spacing" textLength="53.2041" x="527" y="78.4951">Usuario</text></g><g id="elem_CadastrarDespesa"><ellipse cx="92.253" cy="185.6506" fill="#F1F1F1" rx="86.253" ry="19.6506" style="stroke:#181818;stroke-width:0.5;"></ellipse><text fill="#000000" font-family="sans-serif" font-size="14" lengthAdjust="spacing" textLength="133.2051" x="25.6504" y="188.4973">Cadastrar Despesa</text></g><g id="elem_BuscarDespesaPorId"><ellipse cx="311.5068" cy="185.3014" fill="#F1F1F1" rx="97.0068" ry="21.8014" style="stroke:#181818;stroke-width:0.5;"></ellipse><text fill="#000000" font-family="sans-serif" font-size="14" lengthAdjust="spacing" textLength="157.4385" x="232.7875" y="188.148">Buscar Despesa por Id</text></g><g id="elem_BuscarTodasDespesas"><ellipse cx="553.6754" cy="185.4351" fill="#F1F1F1" rx="110.1754" ry="24.4351" style="stroke:#181818;stroke-width:0.5;"></ellipse><text fill="#000000" font-family="sans-serif" font-size="14" lengthAdjust="spacing" textLength="186.2588" x="460.546" y="188.2818">Buscar Todas as Despesas</text></g><g id="elem_AtualizarDespesa"><ellipse cx="782.3482" cy="185.5696" fill="#F1F1F1" rx="83.3482" ry="19.0696" style="stroke:#181818;stroke-width:0.5;"></ellipse><text fill="#000000" font-family="sans-serif" font-size="14" lengthAdjust="spacing" textLength="126.4922" x="718.6263" y="188.5781">Atualizar Despesa</text></g><g id="elem_BuscarDespesaPorCategoriaEMetodoPagamento"><ellipse cx="1108.2722" cy="185.3544" fill="#F1F1F1" rx="207.2722" ry="43.8544" style="stroke:#181818;stroke-width:0.5;"></ellipse><text fill="#000000" font-family="sans-serif" font-size="14" lengthAdjust="spacing" textLength="388.3359" x="914.1043" y="188.2011">Buscar Despesa por Categoria e Metodo de Pagamento</text></g><g id="link_Usuario_CadastrarDespesa"><path d="M526.73,50.55 C466.84,64.33 317.77,100.14 196.5,141.5 C173.94,149.19 154.7679,156.9403 135.1179,165.4303 " fill="none" id="Usuario-to-CadastrarDespesa" style="stroke:#181818;stroke-width:1.0;"></path><polygon fill="#181818" points="129.61,167.81,139.4583,167.9123,134.1999,165.8269,136.2853,160.5685,129.61,167.81" style="stroke:#181818;stroke-width:1.0;"></polygon></g><g id="link_Usuario_BuscarDespesaPorId"><path d="M526.68,60.02 C482.37,85.65 399.1835,133.7753 350.6135,161.8753 " fill="none" id="Usuario-to-BuscarDespesaPorId" style="stroke:#181818;stroke-width:1.0;"></path><polygon fill="#181818" points="345.42,164.88,355.2133,163.8353,349.7479,162.3761,351.2071,156.9107,345.42,164.88" style="stroke:#181818;stroke-width:1.0;"></polygon></g><g id="link_Usuario_BuscarTodasDespesas"><path d="M553.5,81.65 C553.5,106.76 553.5,133.17 553.5,154.83 " fill="none" id="Usuario-to-BuscarTodasDespesas" style="stroke:#181818;stroke-width:1.0;"></path><polygon fill="#181818" points="553.5,160.83,557.5,151.83,553.5,155.83,549.5,151.83,553.5,160.83" style="stroke:#181818;stroke-width:1.0;"></polygon></g><g id="link_Usuario_AtualizarDespesa"><path d="M580.22,60.83 C623.87,87.52 704.9508,137.0905 749.4108,164.2705 " fill="none" id="Usuario-to-AtualizarDespesa" style="stroke:#181818;stroke-width:1.0;"></path><polygon fill="#181818" points="754.53,167.4,748.9376,159.2929,750.264,164.7921,744.7649,166.1185,754.53,167.4" style="stroke:#181818;stroke-width:1.0;"></polygon></g><g id="link_Usuario_BuscarDespesaPorCategoriaEMetodoPagamento"><path d="M580.27,51.25 C650.7,69.02 838.9923,116.5124 971.2323,149.8724 " fill="none" id="Usuario-to-BuscarDespesaPorCategoriaEMetodoPagamento" style="stroke:#181818;stroke-width:1.0;"></path><polygon fill="#181818" points="977.05,151.34,969.3018,145.2601,972.2019,150.117,967.345,153.017,977.05,151.34" style="stroke:#181818;stroke-width:1.0;"></polygon></g></g></svg>